<svg id="Component_188_1" data-name="Component 188 – 1" xmlns="http://www.w3.org/2000/svg" width="45" height="45" viewBox="0 0 45 45">
  <circle id="Ellipse_38" data-name="Ellipse 38" cx="22.5" cy="22.5" r="22.5" fill="#ce2023"/>
  <path id="search" d="M13.9,12.821,10.584,9.5a.325.325,0,0,0-.232-.1H9.991a5.686,5.686,0,1,0-.585.585v.361a.336.336,0,0,0,.1.232L12.821,13.9a.328.328,0,0,0,.465,0l.618-.618A.328.328,0,0,0,13.9,12.821ZM5.687,10.062a4.375,4.375,0,1,1,4.375-4.375A4.374,4.374,0,0,1,5.687,10.062Z" transform="translate(16 16)" fill="#fff"/>
</svg>
